<svg width="494" height="89" viewBox="0 0 494 89" fill="none" xmlns="http://www.w3.org/2000/svg">
<mask id="mask0_6_8" style="mask-type:alpha" maskUnits="userSpaceOnUse" x="0" y="0" width="494" height="89">
<path d="M26.646 25.5187C33.4638 25.5187 38.8612 27.9463 42.8382 32.8015V0H57.61V82.5773H43.1223V76.4414C39.0695 81.4878 33.5774 84.0109 26.646 84.0109C19.0708 84.0109 12.7265 81.2201 7.61315 75.6385C2.53772 70.0569 0 63.099 0 54.7648C0 46.4306 2.53772 39.4727 7.61315 33.8911C12.7265 28.3095 19.0708 25.5187 26.646 25.5187ZM29.3731 39.4536C25.131 39.4536 21.7032 40.9255 19.0897 43.8692C16.4762 46.7747 15.1695 50.4066 15.1695 54.7648C15.1695 59.1231 16.4762 62.7741 19.0897 65.7178C21.7032 68.6233 25.131 70.076 29.3731 70.076C33.5774 70.076 36.9863 68.6424 39.5998 65.7751C42.2511 62.8696 43.5768 59.1995 43.5768 54.7648C43.5768 50.3301 42.2511 46.6791 39.5998 43.8119C36.9863 40.9064 33.5774 39.4536 29.3731 39.4536Z" fill="#F97316"/>
<path d="M124.567 27.0097V82.5773H110.079V76.4414C106.026 81.4878 100.534 84.0109 93.6029 84.0109C86.0276 84.0109 79.6833 81.2201 74.57 75.6385C69.4946 70.0569 66.9569 63.099 66.9569 54.7648C66.9569 46.4306 69.4946 39.4727 74.57 33.8911C79.6833 28.3095 86.0276 25.5187 93.6029 25.5187C100.496 25.5187 105.988 28.061 110.079 33.1456V27.0097H124.567ZM96.33 39.4536C92.0878 39.4536 88.66 40.9255 86.0466 43.8692C83.4331 46.7747 82.1263 50.4066 82.1263 54.7648C82.1263 59.1231 83.4331 62.7741 86.0466 65.7178C88.66 68.6233 92.0878 70.076 96.33 70.076C100.534 70.076 103.943 68.6424 106.557 65.7751C109.208 62.8696 110.534 59.1995 110.534 54.7648C110.534 50.3301 109.208 46.6791 106.557 43.8119C103.943 40.9064 100.534 39.4536 96.33 39.4536Z" fill="#F97316"/>
<path d="M152.151 0V82.5773H137.323V0H152.151Z" fill="#F97316"/>
<path d="M218.519 27.0097L196.987 82.5773H179.886L158.126 27.0097H174.261L188.521 66.8073L202.895 27.0097H218.519Z" fill="#F97316"/>
<path d="M277.167 27.0097C277.167 48.7102 277.167 60.8768 277.167 82.5773H262.679V76.4414C258.627 81.4878 253.135 84.0109 246.203 84.0109C238.628 84.0109 232.284 81.2201 227.17 75.6385C222.095 70.0569 219.557 63.099 219.557 54.7648C219.557 46.4306 222.095 39.4727 227.17 33.8911C232.284 28.3095 238.628 25.5187 246.203 25.5187C253.097 25.5187 258.589 28.061 262.679 33.1456V27.0097H277.167ZM248.93 39.4536C244.688 39.4536 241.26 40.9255 238.647 43.8692C236.033 46.7747 234.727 50.4066 234.727 54.7648C234.727 59.1231 236.033 62.7741 238.647 65.7178C241.26 68.6233 244.688 70.076 248.93 70.076C253.135 70.076 256.544 68.6424 259.157 65.7751C261.808 62.8696 263.134 59.1995 263.134 54.7648C263.134 50.3301 261.808 46.6791 259.157 43.8119C256.544 40.9064 253.135 39.4536 248.93 39.4536Z" fill="#F97316"/>
<path d="M320.546 25.5187C326.833 25.5187 331.966 27.5258 335.943 31.5399C339.958 35.5541 341.965 40.7726 341.965 47.1952V82.5773H327.137C327.137 70.6409 327.137 63.9486 327.137 52.0122C327.137 48.0363 326.19 44.9779 324.296 42.837C322.44 40.6579 319.807 39.5683 316.399 39.5683C313.028 39.5683 310.244 40.6579 308.047 42.837C305.85 45.0161 304.752 48.1128 304.752 52.1269V82.5773H289.923V27.0097H304.354V33.547C307.914 28.1948 313.312 25.5187 320.546 25.5187Z" fill="#F97316"/>
<path d="M408.198 25.5187C412.782 25.5187 416.967 26.4362 420.754 28.2713C424.542 30.0681 427.705 32.6486 430.242 36.0129L419.561 45.0161C416.115 41.3078 412.194 39.4536 407.801 39.4536C403.9 39.4536 400.623 40.8681 397.972 43.6972C395.32 46.5262 393.995 50.2154 393.995 54.7648C393.995 59.3142 395.302 63.0034 397.915 65.8325C400.566 68.6615 403.843 70.076 407.744 70.076C412.327 70.076 416.323 68.2027 419.732 64.4562L430.299 73.5741C424.921 80.532 417.554 84.0109 408.198 84.0109C399.487 84.0109 392.423 81.2775 387.007 75.8106C381.59 70.3054 378.882 63.2902 378.882 54.7648C378.882 46.2777 381.59 39.2816 387.007 33.7764C392.423 28.2713 399.487 25.5187 408.198 25.5187Z" fill="#F97316"/>
<path d="M437.185 75.0077H494V89H437.185V75.0077Z" fill="white"/>
</mask>
<g mask="url(#mask0_6_8)">
<rect x="-83" y="-28" width="612" height="172" fill="#A8A8A8"/>
</g>
</svg>
